<?xml version="1.0" encoding="UTF-8" standalone="no"?>
<!DOCTYPE svg PUBLIC "-//W3C//DTD SVG 1.1//EN"
 "http://www.w3.org/Graphics/SVG/1.1/DTD/svg11.dtd">
<!-- Generated by graphviz version 2.43.0 (0)
 -->
<!-- Title: G Pages: 1 -->
<svg width="584pt" height="609pt"
 viewBox="0.00 0.00 584.00 608.90" xmlns="http://www.w3.org/2000/svg" xmlns:xlink="http://www.w3.org/1999/xlink">
<g id="graph0" class="graph" transform="scale(1 1) rotate(0) translate(4 604.9)">
<title>G</title>
<polygon fill="white" stroke="transparent" points="-4,4 -4,-604.9 580,-604.9 580,4 -4,4"/>
<!-- core -->
<g id="node1" class="node">
<title>core</title>
<g id="a_node1"><a xlink:href="https://pkg.go.dev/github.com/aileron-gateway/aileron-gateway/core" xlink:title="core\l140 / 5.1KB\l" target="_graphviz">
<polygon fill="none" stroke="#0c0791" stroke-width="2" stroke-opacity="0.698039" points="576,-321.9 468,-321.9 468,-285.9 576,-285.9 576,-321.9"/>
<text text-anchor="start" x="476" y="-306.9" font-family="Times,serif" font-size="10.00">core</text>
<text text-anchor="start" x="476" y="-295.9" font-family="Times,serif" font-size="10.00">140 / 5.1KB</text>
</a>
</g>
</g>
<!-- core/entrypoint -->
<g id="node2" class="node">
<title>core/entrypoint</title>
<g id="a_node2"><a xlink:href="https://pkg.go.dev/github.com/aileron-gateway/aileron-gateway/core/entrypoint" xlink:title="core/entrypoint\l229 / 7.0KB\l" target="_graphviz">
<polygon fill="none" stroke="#2b0791" stroke-width="2" stroke-opacity="0.698039" points="108,-546.9 0,-546.9 0,-510.9 108,-510.9 108,-546.9"/>
<text text-anchor="start" x="8" y="-531.9" font-family="Times,serif" font-size="10.00">core/entrypoint</text>
<text text-anchor="start" x="8" y="-520.9" font-family="Times,serif" font-size="10.00">229 / 7.0KB</text>
</a>
</g>
</g>
<!-- core/entrypoint&#45;&gt;core -->
<g id="edge1" class="edge">
<title>core/entrypoint:e&#45;&gt;core</title>
<path fill="none" stroke="#0c0791" stroke-width="2" stroke-opacity="0.698039" d="M108,-528.9C224.24,-528.9 259.05,-516.53 360,-458.9 419.18,-425.12 472.93,-364.75 500.85,-330.16"/>
<polygon fill="#0c0791" fill-opacity="0.698039" stroke="#0c0791" stroke-width="2" stroke-opacity="0.698039" points="503.89,-331.96 507.38,-321.96 498.42,-327.6 503.89,-331.96"/>
</g>
<!-- core/util/http -->
<g id="node14" class="node">
<title>core/util/http</title>
<g id="a_node14"><a xlink:href="https://pkg.go.dev/github.com/aileron-gateway/aileron-gateway/core/util/http" xlink:title="core/util/http\l1041 / 33.7KB\l" target="_graphviz">
<polygon fill="none" stroke="#072691" stroke-width="2" stroke-opacity="0.698039" points="342,-367.9 234,-367.9 234,-331.9 342,-331.9 342,-367.9"/>
<text text-anchor="start" x="242" y="-352.9" font-family="Times,serif" font-size="10.00">core/util/http</text>
<text text-anchor="start" x="242" y="-341.9" font-family="Times,serif" font-size="10.00">1041 / 33.7KB</text>
</a>
</g>
</g>
<!-- core/entrypoint&#45;&gt;core/util/http -->
<g id="edge2" class="edge">
<title>core/entrypoint:e&#45;&gt;core/util/http</title>
<path fill="none" stroke="#072691" stroke-width="2" stroke-opacity="0.698039" d="M108,-528.9C192.67,-528.9 251.28,-427.53 275.1,-377.36"/>
<polygon fill="#072691" fill-opacity="0.698039" stroke="#072691" stroke-width="2" stroke-opacity="0.698039" points="278.38,-378.6 279.39,-368.05 272.02,-375.66 278.38,-378.6"/>
</g>
<!-- core/errhandler -->
<g id="node3" class="node">
<title>core/errhandler</title>
<g id="a_node3"><a xlink:href="https://pkg.go.dev/github.com/aileron-gateway/aileron-gateway/core/errhandler" xlink:title="core/errhandler\l55 / 1.6KB\l" target="_graphviz">
<polygon fill="none" stroke="#079114" stroke-width="2" stroke-opacity="0.698039" points="108,-492.9 0,-492.9 0,-456.9 108,-456.9 108,-492.9"/>
<text text-anchor="start" x="8" y="-477.9" font-family="Times,serif" font-size="10.00">core/errhandler</text>
<text text-anchor="start" x="8" y="-466.9" font-family="Times,serif" font-size="10.00">55 / 1.6KB</text>
</a>
</g>
</g>
<!-- core/errhandler&#45;&gt;core -->
<g id="edge3" class="edge">
<title>core/errhandler:e&#45;&gt;core</title>
<path fill="none" stroke="#0c0791" stroke-width="2" stroke-opacity="0.698039" d="M108,-474.9C222.45,-474.9 255.49,-468.56 360,-421.9 412.29,-398.56 464.15,-356.19 494.35,-329.08"/>
<polygon fill="#0c0791" fill-opacity="0.698039" stroke="#0c0791" stroke-width="2" stroke-opacity="0.698039" points="496.87,-331.52 501.92,-322.2 492.16,-326.34 496.87,-331.52"/>
</g>
<!-- core/errhandler&#45;&gt;core/util/http -->
<g id="edge4" class="edge">
<title>core/errhandler:e&#45;&gt;core/util/http</title>
<path fill="none" stroke="#072691" stroke-width="2" stroke-opacity="0.698039" d="M108,-474.9C176.54,-474.9 237.56,-412.54 267.49,-375.91"/>
<polygon fill="#072691" fill-opacity="0.698039" stroke="#072691" stroke-width="2" stroke-opacity="0.698039" points="270.24,-378.08 273.74,-368.08 264.76,-373.71 270.24,-378.08"/>
</g>
<!-- core/goplugin -->
<g id="node4" class="node">
<title>core/goplugin</title>
<g id="a_node4"><a xlink:href="https://pkg.go.dev/github.com/aileron-gateway/aileron-gateway/core/goplugin" xlink:title="core/goplugin\l91 / 2.8KB\l" target="_graphviz">
<polygon fill="none" stroke="#2e9107" stroke-width="2" stroke-opacity="0.698039" points="108,-438.9 0,-438.9 0,-402.9 108,-402.9 108,-438.9"/>
<text text-anchor="start" x="8" y="-423.9" font-family="Times,serif" font-size="10.00">core/goplugin</text>
<text text-anchor="start" x="8" y="-412.9" font-family="Times,serif" font-size="10.00">91 / 2.8KB</text>
</a>
</g>
</g>
<!-- core/goplugin&#45;&gt;core -->
<g id="edge5" class="edge">
<title>core/goplugin:e&#45;&gt;core</title>
<path fill="none" stroke="#0c0791" stroke-width="2" stroke-opacity="0.698039" d="M108,-420.9C220.59,-420.9 252.73,-429.1 360,-394.9 407.67,-379.7 456.97,-349.28 488.25,-327.81"/>
<polygon fill="#0c0791" fill-opacity="0.698039" stroke="#0c0791" stroke-width="2" stroke-opacity="0.698039" points="490.37,-330.6 496.57,-322.01 486.37,-324.85 490.37,-330.6"/>
</g>
<!-- core/goplugin&#45;&gt;core/util/http -->
<g id="edge6" class="edge">
<title>core/goplugin:e&#45;&gt;core/util/http</title>
<path fill="none" stroke="#072691" stroke-width="2" stroke-opacity="0.698039" d="M108,-420.9C160.63,-420.9 216.23,-394.05 251.23,-373.38"/>
<polygon fill="#072691" fill-opacity="0.698039" stroke="#072691" stroke-width="2" stroke-opacity="0.698039" points="253.37,-376.18 260.11,-368 249.74,-370.19 253.37,-376.18"/>
</g>
<!-- core/httpclient -->
<g id="node5" class="node">
<title>core/httpclient</title>
<g id="a_node5"><a xlink:href="https://pkg.go.dev/github.com/aileron-gateway/aileron-gateway/core/httpclient" xlink:title="core/httpclient\l248 / 8.4KB\l" target="_graphviz">
<polygon fill="none" stroke="#075b91" stroke-width="2" stroke-opacity="0.698039" points="108,-222.9 0,-222.9 0,-186.9 108,-186.9 108,-222.9"/>
<text text-anchor="start" x="8" y="-207.9" font-family="Times,serif" font-size="10.00">core/httpclient</text>
<text text-anchor="start" x="8" y="-196.9" font-family="Times,serif" font-size="10.00">248 / 8.4KB</text>
</a>
</g>
</g>
<!-- core/httpclient&#45;&gt;core -->
<g id="edge7" class="edge">
<title>core/httpclient:e&#45;&gt;core</title>
<path fill="none" stroke="#0c0791" stroke-width="2" stroke-opacity="0.698039" d="M108,-204.9C239.69,-204.9 388.66,-253.09 466.7,-282.23"/>
<polygon fill="#0c0791" fill-opacity="0.698039" stroke="#0c0791" stroke-width="2" stroke-opacity="0.698039" points="465.72,-285.6 476.31,-285.86 468.19,-279.06 465.72,-285.6"/>
</g>
<!-- core/httpclient&#45;&gt;core/util/http -->
<g id="edge8" class="edge">
<title>core/httpclient:e&#45;&gt;core/util/http</title>
<path fill="none" stroke="#072691" stroke-width="2" stroke-opacity="0.698039" d="M108,-204.9C182.33,-204.9 243.08,-281.33 270.79,-323.22"/>
<polygon fill="#072691" fill-opacity="0.698039" stroke="#072691" stroke-width="2" stroke-opacity="0.698039" points="267.99,-325.33 276.35,-331.83 273.87,-321.53 267.99,-325.33"/>
</g>
<!-- core/util/resilience -->
<g id="node15" class="node">
<title>core/util/resilience</title>
<g id="a_node15"><a xlink:href="https://pkg.go.dev/github.com/aileron-gateway/aileron-gateway/core/util/resilience" xlink:title="core/util/resilience\l1113 / 31.4KB\l" target="_graphviz">
<polygon fill="none" stroke="#078491" stroke-width="2" stroke-opacity="0.698039" points="360,-199.9 216,-199.9 216,-163.9 360,-163.9 360,-199.9"/>
<text text-anchor="start" x="224" y="-184.9" font-family="Times,serif" font-size="10.00">core/util/resilience</text>
<text text-anchor="start" x="224" y="-173.9" font-family="Times,serif" font-size="10.00">1113 / 31.4KB</text>
</a>
</g>
</g>
<!-- core/httpclient&#45;&gt;core/util/resilience -->
<g id="edge9" class="edge">
<title>core/httpclient:e&#45;&gt;core/util/resilience</title>
<path fill="none" stroke="#078491" stroke-width="2" stroke-opacity="0.698039" d="M108,-204.9C140.09,-204.9 175.16,-201.22 205.68,-196.8"/>
<polygon fill="#078491" fill-opacity="0.698039" stroke="#078491" stroke-width="2" stroke-opacity="0.698039" points="206.47,-200.22 215.84,-195.28 205.44,-193.3 206.47,-200.22"/>
</g>
<!-- core/httphandler -->
<g id="node6" class="node">
<title>core/httphandler</title>
<g id="a_node6"><a xlink:href="https://pkg.go.dev/github.com/aileron-gateway/aileron-gateway/core/httphandler" xlink:title="core/httphandler\l84 / 2.8KB\l" target="_graphviz">
<polygon fill="none" stroke="#911507" stroke-width="2" stroke-opacity="0.698039" points="108,-384.9 0,-384.9 0,-348.9 108,-348.9 108,-384.9"/>
<text text-anchor="start" x="8" y="-369.9" font-family="Times,serif" font-size="10.00">core/httphandler</text>
<text text-anchor="start" x="8" y="-358.9" font-family="Times,serif" font-size="10.00">84 / 2.8KB</text>
</a>
</g>
</g>
<!-- core/httphandler&#45;&gt;core -->
<g id="edge10" class="edge">
<title>core/httphandler:e&#45;&gt;core</title>
<path fill="none" stroke="#0c0791" stroke-width="2" stroke-opacity="0.698039" d="M108,-366.9C220.09,-366.9 250.44,-400.58 360,-376.9 404.23,-367.34 450.92,-344.58 482.56,-326.99"/>
<polygon fill="#0c0791" fill-opacity="0.698039" stroke="#0c0791" stroke-width="2" stroke-opacity="0.698039" points="484.49,-329.92 491.48,-321.95 481.05,-323.83 484.49,-329.92"/>
</g>
<!-- core/httphandler&#45;&gt;core/util/http -->
<g id="edge11" class="edge">
<title>core/httphandler:e&#45;&gt;core/util/http</title>
<path fill="none" stroke="#072691" stroke-width="2" stroke-opacity="0.698039" d="M108,-366.9C146.47,-366.9 189.39,-362.96 223.56,-358.88"/>
<polygon fill="#072691" fill-opacity="0.698039" stroke="#072691" stroke-width="2" stroke-opacity="0.698039" points="224.37,-362.3 233.86,-357.61 223.51,-355.36 224.37,-362.3"/>
</g>
<!-- core/httplogger -->
<g id="node7" class="node">
<title>core/httplogger</title>
<g id="a_node7"><a xlink:href="https://pkg.go.dev/github.com/aileron-gateway/aileron-gateway/core/httplogger" xlink:title="core/httplogger\l768 / 23.1KB\l" target="_graphviz">
<polygon fill="none" stroke="#910752" stroke-width="2" stroke-opacity="0.698039" points="108,-330.9 0,-330.9 0,-294.9 108,-294.9 108,-330.9"/>
<text text-anchor="start" x="8" y="-315.9" font-family="Times,serif" font-size="10.00">core/httplogger</text>
<text text-anchor="start" x="8" y="-304.9" font-family="Times,serif" font-size="10.00">768 / 23.1KB</text>
</a>
</g>
</g>
<!-- core/httplogger&#45;&gt;core -->
<g id="edge12" class="edge">
<title>core/httplogger:e&#45;&gt;core</title>
<path fill="none" stroke="#0c0791" stroke-width="2" stroke-opacity="0.698039" d="M108,-312.9C231.97,-312.9 376.82,-308.8 457.84,-306.13"/>
<polygon fill="#0c0791" fill-opacity="0.698039" stroke="#0c0791" stroke-width="2" stroke-opacity="0.698039" points="458,-309.63 467.87,-305.8 457.76,-302.64 458,-309.63"/>
</g>
<!-- core/httplogger&#45;&gt;core/util/http -->
<g id="edge13" class="edge">
<title>core/httplogger:e&#45;&gt;core/util/http</title>
<path fill="none" stroke="#072691" stroke-width="2" stroke-opacity="0.698039" d="M108,-312.9C147.14,-312.9 190.11,-321.49 224.13,-330.39"/>
<polygon fill="#072691" fill-opacity="0.698039" stroke="#072691" stroke-width="2" stroke-opacity="0.698039" points="223.37,-333.81 233.94,-333.03 225.19,-327.05 223.37,-333.81"/>
</g>
<!-- core/httpproxy -->
<g id="node8" class="node">
<title>core/httpproxy</title>
<g id="a_node8"><a xlink:href="https://pkg.go.dev/github.com/aileron-gateway/aileron-gateway/core/httpproxy" xlink:title="core/httpproxy\l1808 / 61.3KB\l" target="_graphviz">
<polygon fill="none" stroke="#071191" stroke-width="2" stroke-opacity="0.698039" points="108,-168.9 0,-168.9 0,-132.9 108,-132.9 108,-168.9"/>
<text text-anchor="start" x="8" y="-153.9" font-family="Times,serif" font-size="10.00">core/httpproxy</text>
<text text-anchor="start" x="8" y="-142.9" font-family="Times,serif" font-size="10.00">1808 / 61.3KB</text>
</a>
</g>
</g>
<!-- core/httpproxy&#45;&gt;core -->
<g id="edge14" class="edge">
<title>core/httpproxy:e&#45;&gt;core</title>
<path fill="none" stroke="#0c0791" stroke-width="2" stroke-opacity="0.698039" d="M108,-150.9C220.01,-150.9 256.03,-113.22 360,-154.9 422.57,-179.99 475.58,-241.61 502.34,-277.26"/>
<polygon fill="#0c0791" fill-opacity="0.698039" stroke="#0c0791" stroke-width="2" stroke-opacity="0.698039" points="499.82,-279.74 508.57,-285.72 505.46,-275.59 499.82,-279.74"/>
</g>
<!-- core/httpproxy&#45;&gt;core/util/http -->
<g id="edge15" class="edge">
<title>core/httpproxy:e&#45;&gt;core/util/http</title>
<path fill="none" stroke="#072691" stroke-width="2" stroke-opacity="0.698039" d="M108,-150.9C199.21,-150.9 255.78,-267.89 277.21,-322.47"/>
<polygon fill="#072691" fill-opacity="0.698039" stroke="#072691" stroke-width="2" stroke-opacity="0.698039" points="273.97,-323.8 280.81,-331.89 280.51,-321.3 273.97,-323.8"/>
</g>
<!-- core/httpproxy&#45;&gt;core/util/resilience -->
<g id="edge16" class="edge">
<title>core/httpproxy:e&#45;&gt;core/util/resilience</title>
<path fill="none" stroke="#078491" stroke-width="2" stroke-opacity="0.698039" d="M108,-150.9C140.3,-150.9 175.41,-155.87 205.91,-161.82"/>
<polygon fill="#078491" fill-opacity="0.698039" stroke="#078491" stroke-width="2" stroke-opacity="0.698039" points="205.57,-165.32 216.06,-163.87 206.95,-158.46 205.57,-165.32"/>
</g>
<!-- core/httpserver -->
<g id="node9" class="node">
<title>core/httpserver</title>
<g id="a_node9"><a xlink:href="https://pkg.go.dev/github.com/aileron-gateway/aileron-gateway/core/httpserver" xlink:title="core/httpserver\l534 / 19.0KB\l" target="_graphviz">
<polygon fill="none" stroke="#910785" stroke-width="2" stroke-opacity="0.698039" points="108,-276.9 0,-276.9 0,-240.9 108,-240.9 108,-276.9"/>
<text text-anchor="start" x="8" y="-261.9" font-family="Times,serif" font-size="10.00">core/httpserver</text>
<text text-anchor="start" x="8" y="-250.9" font-family="Times,serif" font-size="10.00">534 / 19.0KB</text>
</a>
</g>
</g>
<!-- core/httpserver&#45;&gt;core -->
<g id="edge17" class="edge">
<title>core/httpserver:e&#45;&gt;core</title>
<path fill="none" stroke="#0c0791" stroke-width="2" stroke-opacity="0.698039" d="M108,-258.9C232.5,-258.9 376.88,-279.36 457.72,-292.69"/>
<polygon fill="#0c0791" fill-opacity="0.698039" stroke="#0c0791" stroke-width="2" stroke-opacity="0.698039" points="457.3,-296.17 467.74,-294.36 458.45,-289.26 457.3,-296.17"/>
</g>
<!-- core/httpserver&#45;&gt;core/util/http -->
<g id="edge18" class="edge">
<title>core/httpserver:e&#45;&gt;core/util/http</title>
<path fill="none" stroke="#072691" stroke-width="2" stroke-opacity="0.698039" d="M108,-258.9C166.65,-258.9 225.52,-298.21 258.99,-325.15"/>
<polygon fill="#072691" fill-opacity="0.698039" stroke="#072691" stroke-width="2" stroke-opacity="0.698039" points="257,-328.04 266.94,-331.71 261.45,-322.64 257,-328.04"/>
</g>
<!-- core/slogger -->
<g id="node10" class="node">
<title>core/slogger</title>
<g id="a_node10"><a xlink:href="https://pkg.go.dev/github.com/aileron-gateway/aileron-gateway/core/slogger" xlink:title="core/slogger\l258 / 6.9KB\l" target="_graphviz">
<polygon fill="none" stroke="#079130" stroke-width="2" stroke-opacity="0.698039" points="342,-69.9 234,-69.9 234,-33.9 342,-33.9 342,-69.9"/>
<text text-anchor="start" x="242" y="-54.9" font-family="Times,serif" font-size="10.00">core/slogger</text>
<text text-anchor="start" x="242" y="-43.9" font-family="Times,serif" font-size="10.00">258 / 6.9KB</text>
</a>
</g>
</g>
<!-- core/slogger&#45;&gt;core -->
<g id="edge19" class="edge">
<title>core/slogger:e&#45;&gt;core</title>
<path fill="none" stroke="#0c0791" stroke-width="2" stroke-opacity="0.698039" d="M343,-51.9C451.58,-51.9 499.81,-209.92 515.19,-275.7"/>
<polygon fill="#0c0791" fill-opacity="0.698039" stroke="#0c0791" stroke-width="2" stroke-opacity="0.698039" points="511.85,-276.79 517.45,-285.78 518.68,-275.26 511.85,-276.79"/>
</g>
<!-- core/static -->
<g id="node11" class="node">
<title>core/static</title>
<g id="a_node11"><a xlink:href="https://pkg.go.dev/github.com/aileron-gateway/aileron-gateway/core/static" xlink:title="core/static\l154 / 4.2KB\l" target="_graphviz">
<polygon fill="none" stroke="#078c91" stroke-width="2" stroke-opacity="0.698039" points="108,-114.9 0,-114.9 0,-78.9 108,-78.9 108,-114.9"/>
<text text-anchor="start" x="8" y="-99.9" font-family="Times,serif" font-size="10.00">core/static</text>
<text text-anchor="start" x="8" y="-88.9" font-family="Times,serif" font-size="10.00">154 / 4.2KB</text>
</a>
</g>
</g>
<!-- core/static&#45;&gt;core -->
<g id="edge20" class="edge">
<title>core/static:e&#45;&gt;core</title>
<path fill="none" stroke="#0c0791" stroke-width="2" stroke-opacity="0.698039" d="M108,-96.9C221.01,-96.9 259.64,-78.95 360,-130.9 425.94,-165.04 479.12,-237.38 504.62,-276.84"/>
<polygon fill="#0c0791" fill-opacity="0.698039" stroke="#0c0791" stroke-width="2" stroke-opacity="0.698039" points="501.9,-279.09 510.21,-285.66 507.81,-275.34 501.9,-279.09"/>
</g>
<!-- core/static&#45;&gt;core/util/http -->
<g id="edge21" class="edge">
<title>core/static:e&#45;&gt;core/util/http</title>
<path fill="none" stroke="#072691" stroke-width="2" stroke-opacity="0.698039" d="M108,-96.9C162.76,-96.9 243.61,-256.85 274.43,-322.4"/>
<polygon fill="#072691" fill-opacity="0.698039" stroke="#072691" stroke-width="2" stroke-opacity="0.698039" points="271.38,-324.12 278.78,-331.71 277.72,-321.17 271.38,-324.12"/>
</g>
<!-- core/tcpproxy -->
<g id="node12" class="node">
<title>core/tcpproxy</title>
<g id="a_node12"><a xlink:href="https://pkg.go.dev/github.com/aileron-gateway/aileron-gateway/core/tcpproxy" xlink:title="core/tcpproxy\l349 / 8.4KB\l" target="_graphviz">
<polygon fill="none" stroke="#109107" stroke-width="2" stroke-opacity="0.698039" points="108,-43.9 0,-43.9 0,-7.9 108,-7.9 108,-43.9"/>
<text text-anchor="start" x="8" y="-28.9" font-family="Times,serif" font-size="10.00">core/tcpproxy</text>
<text text-anchor="start" x="8" y="-17.9" font-family="Times,serif" font-size="10.00">349 / 8.4KB</text>
</a>
</g>
</g>
<!-- core/tcpproxy&#45;&gt;core -->
<g id="edge22" class="edge">
<title>core/tcpproxy:e&#45;&gt;core</title>
<path fill="none" stroke="#0c0791" stroke-width="2" stroke-opacity="0.698039" d="M108,-25.9C220,-25.9 263.01,31.11 360,-24.9 455.94,-80.31 499.81,-217.04 514.74,-276.05"/>
<polygon fill="#0c0791" fill-opacity="0.698039" stroke="#0c0791" stroke-width="2" stroke-opacity="0.698039" points="511.35,-276.92 517.12,-285.8 518.15,-275.26 511.35,-276.92"/>
</g>
<!-- core/tcpproxy&#45;&gt;core/util/resilience -->
<g id="edge23" class="edge">
<title>core/tcpproxy:e&#45;&gt;core/util/resilience</title>
<path fill="none" stroke="#078491" stroke-width="2" stroke-opacity="0.698039" d="M108,-25.9C185.55,-25.9 245.78,-110.14 272.27,-154.82"/>
<polygon fill="#078491" fill-opacity="0.698039" stroke="#078491" stroke-width="2" stroke-opacity="0.698039" points="269.38,-156.8 277.41,-163.7 275.44,-153.29 269.38,-156.8"/>
</g>
<!-- core/template -->
<g id="node13" class="node">
<title>core/template</title>
<g id="a_node13"><a xlink:href="https://pkg.go.dev/github.com/aileron-gateway/aileron-gateway/core/template" xlink:title="core/template\l139 / 4.1KB\l" target="_graphviz">
<polygon fill="none" stroke="#910741" stroke-width="2" stroke-opacity="0.698039" points="108,-600.9 0,-600.9 0,-564.9 108,-564.9 108,-600.9"/>
<text text-anchor="start" x="8" y="-585.9" font-family="Times,serif" font-size="10.00">core/template</text>
<text text-anchor="start" x="8" y="-574.9" font-family="Times,serif" font-size="10.00">139 / 4.1KB</text>
</a>
</g>
</g>
<!-- core/template&#45;&gt;core -->
<g id="edge24" class="edge">
<title>core/template:e&#45;&gt;core</title>
<path fill="none" stroke="#0c0791" stroke-width="2" stroke-opacity="0.698039" d="M108,-582.9C225.51,-582.9 262.95,-569.15 360,-502.9 427.88,-456.57 481.7,-373.33 506.36,-330.69"/>
<polygon fill="#0c0791" fill-opacity="0.698039" stroke="#0c0791" stroke-width="2" stroke-opacity="0.698039" points="509.41,-332.41 511.31,-321.98 503.32,-328.95 509.41,-332.41"/>
</g>
<!-- core/template&#45;&gt;core/util/http -->
<g id="edge25" class="edge">
<title>core/template:e&#45;&gt;core/util/http</title>
<path fill="none" stroke="#072691" stroke-width="2" stroke-opacity="0.698039" d="M108,-582.9C210.23,-582.9 262.1,-440.11 279.8,-378.1"/>
<polygon fill="#072691" fill-opacity="0.698039" stroke="#072691" stroke-width="2" stroke-opacity="0.698039" points="283.25,-378.76 282.54,-368.19 276.5,-376.9 283.25,-378.76"/>
</g>
<!-- core/util/http&#45;&gt;core -->
<g id="edge26" class="edge">
<title>core/util/http:e&#45;&gt;core</title>
<path fill="none" stroke="#0c0791" stroke-width="2" stroke-opacity="0.698039" d="M343,-349.9C385.74,-349.9 432.47,-337.32 467.32,-325.31"/>
<polygon fill="#0c0791" fill-opacity="0.698039" stroke="#0c0791" stroke-width="2" stroke-opacity="0.698039" points="468.56,-328.59 476.83,-321.95 466.23,-321.99 468.56,-328.59"/>
</g>
</g>
</svg>
