<?xml version="1.0" encoding="UTF-8" standalone="no"?>
<!DOCTYPE svg PUBLIC "-//W3C//DTD SVG 1.1//EN"
 "http://www.w3.org/Graphics/SVG/1.1/DTD/svg11.dtd">
<!-- Generated by graphviz version 2.43.0 (0)
 -->
<!-- Title: G Pages: 1 -->
<svg width="332pt" height="638pt"
 viewBox="0.00 0.00 332.00 638.00" xmlns="http://www.w3.org/2000/svg" xmlns:xlink="http://www.w3.org/1999/xlink">
<g id="graph0" class="graph" transform="scale(1 1) rotate(0) translate(4 634)">
<title>G</title>
<polygon fill="white" stroke="transparent" points="-4,4 -4,-634 328,-634 328,4 -4,4"/>
<!-- core -->
<g id="node1" class="node">
<title>core</title>
<g id="a_node1"><a xlink:href="https://pkg.go.dev/github.com/aileron-gateway/aileron-gateway/core" xlink:title="core\l140 / 5.1KB\l" target="_graphviz">
<polygon fill="none" stroke="#0c0791" stroke-width="2" stroke-opacity="0.698039" points="324,-333 216,-333 216,-297 324,-297 324,-333"/>
<text text-anchor="start" x="224" y="-318" font-family="Times,serif" font-size="10.00">core</text>
<text text-anchor="start" x="224" y="-307" font-family="Times,serif" font-size="10.00">140 / 5.1KB</text>
</a>
</g>
</g>
<!-- core/entrypoint -->
<g id="node2" class="node">
<title>core/entrypoint</title>
<g id="a_node2"><a xlink:href="https://pkg.go.dev/github.com/aileron-gateway/aileron-gateway/core/entrypoint" xlink:title="core/entrypoint\l229 / 7.0KB\l" target="_graphviz">
<polygon fill="none" stroke="#2b0791" stroke-width="2" stroke-opacity="0.698039" points="108,-630 0,-630 0,-594 108,-594 108,-630"/>
<text text-anchor="start" x="8" y="-615" font-family="Times,serif" font-size="10.00">core/entrypoint</text>
<text text-anchor="start" x="8" y="-604" font-family="Times,serif" font-size="10.00">229 / 7.0KB</text>
</a>
</g>
</g>
<!-- core/entrypoint&#45;&gt;core -->
<g id="edge1" class="edge">
<title>core/entrypoint:e&#45;&gt;core</title>
<path fill="none" stroke="#0c0791" stroke-width="2" stroke-opacity="0.698039" d="M108,-612C229.59,-612 259.83,-417.24 266.94,-343.15"/>
<polygon fill="#0c0791" fill-opacity="0.698039" stroke="#0c0791" stroke-width="2" stroke-opacity="0.698039" points="270.43,-343.4 267.83,-333.13 263.46,-342.78 270.43,-343.4"/>
</g>
<!-- core/errhandler -->
<g id="node3" class="node">
<title>core/errhandler</title>
<g id="a_node3"><a xlink:href="https://pkg.go.dev/github.com/aileron-gateway/aileron-gateway/core/errhandler" xlink:title="core/errhandler\l55 / 1.6KB\l" target="_graphviz">
<polygon fill="none" stroke="#079114" stroke-width="2" stroke-opacity="0.698039" points="108,-576 0,-576 0,-540 108,-540 108,-576"/>
<text text-anchor="start" x="8" y="-561" font-family="Times,serif" font-size="10.00">core/errhandler</text>
<text text-anchor="start" x="8" y="-550" font-family="Times,serif" font-size="10.00">55 / 1.6KB</text>
</a>
</g>
</g>
<!-- core/errhandler&#45;&gt;core -->
<g id="edge2" class="edge">
<title>core/errhandler:e&#45;&gt;core</title>
<path fill="none" stroke="#0c0791" stroke-width="2" stroke-opacity="0.698039" d="M108,-558C210.11,-558 251.27,-407.05 264.13,-343.1"/>
<polygon fill="#0c0791" fill-opacity="0.698039" stroke="#0c0791" stroke-width="2" stroke-opacity="0.698039" points="267.57,-343.75 266.02,-333.26 260.7,-342.42 267.57,-343.75"/>
</g>
<!-- core/goplugin -->
<g id="node4" class="node">
<title>core/goplugin</title>
<g id="a_node4"><a xlink:href="https://pkg.go.dev/github.com/aileron-gateway/aileron-gateway/core/goplugin" xlink:title="core/goplugin\l91 / 2.8KB\l" target="_graphviz">
<polygon fill="none" stroke="#2e9107" stroke-width="2" stroke-opacity="0.698039" points="108,-522 0,-522 0,-486 108,-486 108,-522"/>
<text text-anchor="start" x="8" y="-507" font-family="Times,serif" font-size="10.00">core/goplugin</text>
<text text-anchor="start" x="8" y="-496" font-family="Times,serif" font-size="10.00">91 / 2.8KB</text>
</a>
</g>
</g>
<!-- core/goplugin&#45;&gt;core -->
<g id="edge3" class="edge">
<title>core/goplugin:e&#45;&gt;core</title>
<path fill="none" stroke="#0c0791" stroke-width="2" stroke-opacity="0.698039" d="M108,-504C191.65,-504 240.99,-395.39 259.98,-342.84"/>
<polygon fill="#0c0791" fill-opacity="0.698039" stroke="#0c0791" stroke-width="2" stroke-opacity="0.698039" points="263.38,-343.72 263.37,-333.12 256.77,-341.41 263.38,-343.72"/>
</g>
<!-- core/httpclient -->
<g id="node5" class="node">
<title>core/httpclient</title>
<g id="a_node5"><a xlink:href="https://pkg.go.dev/github.com/aileron-gateway/aileron-gateway/core/httpclient" xlink:title="core/httpclient\l248 / 8.4KB\l" target="_graphviz">
<polygon fill="none" stroke="#075b91" stroke-width="2" stroke-opacity="0.698039" points="108,-468 0,-468 0,-432 108,-432 108,-468"/>
<text text-anchor="start" x="8" y="-453" font-family="Times,serif" font-size="10.00">core/httpclient</text>
<text text-anchor="start" x="8" y="-442" font-family="Times,serif" font-size="10.00">248 / 8.4KB</text>
</a>
</g>
</g>
<!-- core/httpclient&#45;&gt;core -->
<g id="edge4" class="edge">
<title>core/httpclient:e&#45;&gt;core</title>
<path fill="none" stroke="#0c0791" stroke-width="2" stroke-opacity="0.698039" d="M108,-450C174.53,-450 227.98,-381.48 253.22,-342.07"/>
<polygon fill="#0c0791" fill-opacity="0.698039" stroke="#0c0791" stroke-width="2" stroke-opacity="0.698039" points="256.42,-343.55 258.74,-333.21 250.48,-339.85 256.42,-343.55"/>
</g>
<!-- core/httphandler -->
<g id="node6" class="node">
<title>core/httphandler</title>
<g id="a_node6"><a xlink:href="https://pkg.go.dev/github.com/aileron-gateway/aileron-gateway/core/httphandler" xlink:title="core/httphandler\l84 / 2.8KB\l" target="_graphviz">
<polygon fill="none" stroke="#911507" stroke-width="2" stroke-opacity="0.698039" points="108,-414 0,-414 0,-378 108,-378 108,-414"/>
<text text-anchor="start" x="8" y="-399" font-family="Times,serif" font-size="10.00">core/httphandler</text>
<text text-anchor="start" x="8" y="-388" font-family="Times,serif" font-size="10.00">84 / 2.8KB</text>
</a>
</g>
</g>
<!-- core/httphandler&#45;&gt;core -->
<g id="edge5" class="edge">
<title>core/httphandler:e&#45;&gt;core</title>
<path fill="none" stroke="#0c0791" stroke-width="2" stroke-opacity="0.698039" d="M108,-396C158.62,-396 209.56,-363.65 240.2,-339.84"/>
<polygon fill="#0c0791" fill-opacity="0.698039" stroke="#0c0791" stroke-width="2" stroke-opacity="0.698039" points="242.66,-342.35 248.29,-333.38 238.29,-336.88 242.66,-342.35"/>
</g>
<!-- core/httplogger -->
<g id="node7" class="node">
<title>core/httplogger</title>
<g id="a_node7"><a xlink:href="https://pkg.go.dev/github.com/aileron-gateway/aileron-gateway/core/httplogger" xlink:title="core/httplogger\l768 / 23.1KB\l" target="_graphviz">
<polygon fill="none" stroke="#910752" stroke-width="2" stroke-opacity="0.698039" points="108,-360 0,-360 0,-324 108,-324 108,-360"/>
<text text-anchor="start" x="8" y="-345" font-family="Times,serif" font-size="10.00">core/httplogger</text>
<text text-anchor="start" x="8" y="-334" font-family="Times,serif" font-size="10.00">768 / 23.1KB</text>
</a>
</g>
</g>
<!-- core/httplogger&#45;&gt;core -->
<g id="edge6" class="edge">
<title>core/httplogger:e&#45;&gt;core</title>
<path fill="none" stroke="#0c0791" stroke-width="2" stroke-opacity="0.698039" d="M108,-342C140.45,-342 176.08,-336.6 205.55,-330.63"/>
<polygon fill="#0c0791" fill-opacity="0.698039" stroke="#0c0791" stroke-width="2" stroke-opacity="0.698039" points="206.64,-333.98 215.71,-328.5 205.2,-327.13 206.64,-333.98"/>
</g>
<!-- core/httpproxy -->
<g id="node8" class="node">
<title>core/httpproxy</title>
<g id="a_node8"><a xlink:href="https://pkg.go.dev/github.com/aileron-gateway/aileron-gateway/core/httpproxy" xlink:title="core/httpproxy\l1808 / 61.3KB\l" target="_graphviz">
<polygon fill="none" stroke="#071191" stroke-width="2" stroke-opacity="0.698039" points="108,-306 0,-306 0,-270 108,-270 108,-306"/>
<text text-anchor="start" x="8" y="-291" font-family="Times,serif" font-size="10.00">core/httpproxy</text>
<text text-anchor="start" x="8" y="-280" font-family="Times,serif" font-size="10.00">1808 / 61.3KB</text>
</a>
</g>
</g>
<!-- core/httpproxy&#45;&gt;core -->
<g id="edge7" class="edge">
<title>core/httpproxy:e&#45;&gt;core</title>
<path fill="none" stroke="#0c0791" stroke-width="2" stroke-opacity="0.698039" d="M108,-288C140.45,-288 176.08,-293.4 205.55,-299.37"/>
<polygon fill="#0c0791" fill-opacity="0.698039" stroke="#0c0791" stroke-width="2" stroke-opacity="0.698039" points="205.2,-302.87 215.71,-301.5 206.64,-296.02 205.2,-302.87"/>
</g>
<!-- core/httpserver -->
<g id="node9" class="node">
<title>core/httpserver</title>
<g id="a_node9"><a xlink:href="https://pkg.go.dev/github.com/aileron-gateway/aileron-gateway/core/httpserver" xlink:title="core/httpserver\l534 / 19.0KB\l" target="_graphviz">
<polygon fill="none" stroke="#910785" stroke-width="2" stroke-opacity="0.698039" points="108,-252 0,-252 0,-216 108,-216 108,-252"/>
<text text-anchor="start" x="8" y="-237" font-family="Times,serif" font-size="10.00">core/httpserver</text>
<text text-anchor="start" x="8" y="-226" font-family="Times,serif" font-size="10.00">534 / 19.0KB</text>
</a>
</g>
</g>
<!-- core/httpserver&#45;&gt;core -->
<g id="edge8" class="edge">
<title>core/httpserver:e&#45;&gt;core</title>
<path fill="none" stroke="#0c0791" stroke-width="2" stroke-opacity="0.698039" d="M108,-234C158.62,-234 209.56,-266.35 240.2,-290.16"/>
<polygon fill="#0c0791" fill-opacity="0.698039" stroke="#0c0791" stroke-width="2" stroke-opacity="0.698039" points="238.29,-293.12 248.29,-296.62 242.66,-287.65 238.29,-293.12"/>
</g>
<!-- core/slogger -->
<g id="node10" class="node">
<title>core/slogger</title>
<g id="a_node10"><a xlink:href="https://pkg.go.dev/github.com/aileron-gateway/aileron-gateway/core/slogger" xlink:title="core/slogger\l258 / 6.9KB\l" target="_graphviz">
<polygon fill="none" stroke="#079130" stroke-width="2" stroke-opacity="0.698039" points="108,-198 0,-198 0,-162 108,-162 108,-198"/>
<text text-anchor="start" x="8" y="-183" font-family="Times,serif" font-size="10.00">core/slogger</text>
<text text-anchor="start" x="8" y="-172" font-family="Times,serif" font-size="10.00">258 / 6.9KB</text>
</a>
</g>
</g>
<!-- core/slogger&#45;&gt;core -->
<g id="edge9" class="edge">
<title>core/slogger:e&#45;&gt;core</title>
<path fill="none" stroke="#0c0791" stroke-width="2" stroke-opacity="0.698039" d="M108,-180C174.53,-180 227.98,-248.52 253.22,-287.93"/>
<polygon fill="#0c0791" fill-opacity="0.698039" stroke="#0c0791" stroke-width="2" stroke-opacity="0.698039" points="250.48,-290.15 258.74,-296.79 256.42,-286.45 250.48,-290.15"/>
</g>
<!-- core/static -->
<g id="node11" class="node">
<title>core/static</title>
<g id="a_node11"><a xlink:href="https://pkg.go.dev/github.com/aileron-gateway/aileron-gateway/core/static" xlink:title="core/static\l154 / 4.2KB\l" target="_graphviz">
<polygon fill="none" stroke="#078c91" stroke-width="2" stroke-opacity="0.698039" points="108,-144 0,-144 0,-108 108,-108 108,-144"/>
<text text-anchor="start" x="8" y="-129" font-family="Times,serif" font-size="10.00">core/static</text>
<text text-anchor="start" x="8" y="-118" font-family="Times,serif" font-size="10.00">154 / 4.2KB</text>
</a>
</g>
</g>
<!-- core/static&#45;&gt;core -->
<g id="edge10" class="edge">
<title>core/static:e&#45;&gt;core</title>
<path fill="none" stroke="#0c0791" stroke-width="2" stroke-opacity="0.698039" d="M108,-126C191.65,-126 240.99,-234.61 259.98,-287.16"/>
<polygon fill="#0c0791" fill-opacity="0.698039" stroke="#0c0791" stroke-width="2" stroke-opacity="0.698039" points="256.77,-288.59 263.37,-296.88 263.38,-286.28 256.77,-288.59"/>
</g>
<!-- core/tcpproxy -->
<g id="node12" class="node">
<title>core/tcpproxy</title>
<g id="a_node12"><a xlink:href="https://pkg.go.dev/github.com/aileron-gateway/aileron-gateway/core/tcpproxy" xlink:title="core/tcpproxy\l349 / 8.4KB\l" target="_graphviz">
<polygon fill="none" stroke="#109107" stroke-width="2" stroke-opacity="0.698039" points="108,-90 0,-90 0,-54 108,-54 108,-90"/>
<text text-anchor="start" x="8" y="-75" font-family="Times,serif" font-size="10.00">core/tcpproxy</text>
<text text-anchor="start" x="8" y="-64" font-family="Times,serif" font-size="10.00">349 / 8.4KB</text>
</a>
</g>
</g>
<!-- core/tcpproxy&#45;&gt;core -->
<g id="edge11" class="edge">
<title>core/tcpproxy:e&#45;&gt;core</title>
<path fill="none" stroke="#0c0791" stroke-width="2" stroke-opacity="0.698039" d="M108,-72C210.11,-72 251.27,-222.95 264.13,-286.9"/>
<polygon fill="#0c0791" fill-opacity="0.698039" stroke="#0c0791" stroke-width="2" stroke-opacity="0.698039" points="260.7,-287.58 266.02,-296.74 267.57,-286.25 260.7,-287.58"/>
</g>
<!-- core/template -->
<g id="node13" class="node">
<title>core/template</title>
<g id="a_node13"><a xlink:href="https://pkg.go.dev/github.com/aileron-gateway/aileron-gateway/core/template" xlink:title="core/template\l139 / 4.1KB\l" target="_graphviz">
<polygon fill="none" stroke="#910741" stroke-width="2" stroke-opacity="0.698039" points="108,-36 0,-36 0,0 108,0 108,-36"/>
<text text-anchor="start" x="8" y="-21" font-family="Times,serif" font-size="10.00">core/template</text>
<text text-anchor="start" x="8" y="-10" font-family="Times,serif" font-size="10.00">139 / 4.1KB</text>
</a>
</g>
</g>
<!-- core/template&#45;&gt;core -->
<g id="edge12" class="edge">
<title>core/template:e&#45;&gt;core</title>
<path fill="none" stroke="#0c0791" stroke-width="2" stroke-opacity="0.698039" d="M108,-18C229.59,-18 259.83,-212.76 266.94,-286.85"/>
<polygon fill="#0c0791" fill-opacity="0.698039" stroke="#0c0791" stroke-width="2" stroke-opacity="0.698039" points="263.46,-287.22 267.83,-296.87 270.43,-286.6 263.46,-287.22"/>
</g>
</g>
</svg>
