<?xml version="1.0" encoding="UTF-8" standalone="no"?>
<!DOCTYPE svg PUBLIC "-//W3C//DTD SVG 1.1//EN"
 "http://www.w3.org/Graphics/SVG/1.1/DTD/svg11.dtd">
<!-- Generated by graphviz version 2.43.0 (0)
 -->
<!-- Title: G Pages: 1 -->
<svg width="512pt" height="676pt"
 viewBox="0.00 0.00 512.00 676.00" xmlns="http://www.w3.org/2000/svg" xmlns:xlink="http://www.w3.org/1999/xlink">
<g id="graph0" class="graph" transform="scale(1 1) rotate(0) translate(4 672)">
<title>G</title>
<polygon fill="white" stroke="transparent" points="-4,4 -4,-672 508,-672 508,4 -4,4"/>
<!-- kernel/api -->
<g id="node1" class="node">
<title>kernel/api</title>
<g id="a_node1"><a xlink:href="https://pkg.go.dev/github.com/aileron-gateway/aileron-gateway/kernel/api" xlink:title="kernel/api\l844 / 25.8KB\l" target="_graphviz">
<polygon fill="none" stroke="#915607" stroke-width="2" stroke-opacity="0.698039" points="108,-398 0,-398 0,-362 108,-362 108,-398"/>
<text text-anchor="start" x="8" y="-383" font-family="Times,serif" font-size="10.00">kernel/api</text>
<text text-anchor="start" x="8" y="-372" font-family="Times,serif" font-size="10.00">844 / 25.8KB</text>
</a>
</g>
</g>
<!-- kernel/encoder -->
<g id="node3" class="node">
<title>kernel/encoder</title>
<g id="a_node3"><a xlink:href="https://pkg.go.dev/github.com/aileron-gateway/aileron-gateway/kernel/encoder" xlink:title="kernel/encoder\l614 / 19.3KB\l" target="_graphviz">
<polygon fill="none" stroke="#3a0791" stroke-width="2" stroke-opacity="0.698039" points="324,-344 216,-344 216,-308 324,-308 324,-344"/>
<text text-anchor="start" x="224" y="-329" font-family="Times,serif" font-size="10.00">kernel/encoder</text>
<text text-anchor="start" x="224" y="-318" font-family="Times,serif" font-size="10.00">614 / 19.3KB</text>
</a>
</g>
</g>
<!-- kernel/api&#45;&gt;kernel/encoder -->
<g id="edge1" class="edge">
<title>kernel/api:e&#45;&gt;kernel/encoder</title>
<path fill="none" stroke="#3a0791" stroke-width="2" stroke-opacity="0.698039" d="M108,-380C129.27,-380 177.7,-362.85 215.92,-347.88"/>
<polygon fill="#3a0791" fill-opacity="0.698039" stroke="#3a0791" stroke-width="2" stroke-opacity="0.698039" points="217.38,-351.06 225.4,-344.13 214.81,-344.55 217.38,-351.06"/>
</g>
<!-- kernel/er -->
<g id="node5" class="node">
<title>kernel/er</title>
<g id="a_node5"><a xlink:href="https://pkg.go.dev/github.com/aileron-gateway/aileron-gateway/kernel/er" xlink:title="kernel/er\l75 / 1.7KB\l" target="_graphviz">
<polygon fill="none" stroke="#07918f" stroke-width="2" stroke-opacity="0.698039" points="504,-263 432,-263 432,-227 504,-227 504,-263"/>
<text text-anchor="start" x="440" y="-248" font-family="Times,serif" font-size="10.00">kernel/er</text>
<text text-anchor="start" x="440" y="-237" font-family="Times,serif" font-size="10.00">75 / 1.7KB</text>
</a>
</g>
</g>
<!-- kernel/api&#45;&gt;kernel/er -->
<g id="edge2" class="edge">
<title>kernel/api:e&#45;&gt;kernel/er</title>
<path fill="none" stroke="#07918f" stroke-width="2" stroke-opacity="0.698039" d="M108,-380C204.75,-380 235.81,-446.79 324,-407 385.47,-379.27 431.12,-310.6 452.86,-272.16"/>
<polygon fill="#07918f" fill-opacity="0.698039" stroke="#07918f" stroke-width="2" stroke-opacity="0.698039" points="456.11,-273.53 457.87,-263.09 449.98,-270.15 456.11,-273.53"/>
</g>
<!-- kernel/io -->
<g id="node8" class="node">
<title>kernel/io</title>
<g id="a_node8"><a xlink:href="https://pkg.go.dev/github.com/aileron-gateway/aileron-gateway/kernel/io" xlink:title="kernel/io\l896 / 27.3KB\l" target="_graphviz">
<polygon fill="none" stroke="#700791" stroke-width="2" stroke-opacity="0.698039" points="324,-398 216,-398 216,-362 324,-362 324,-398"/>
<text text-anchor="start" x="224" y="-383" font-family="Times,serif" font-size="10.00">kernel/io</text>
<text text-anchor="start" x="224" y="-372" font-family="Times,serif" font-size="10.00">896 / 27.3KB</text>
</a>
</g>
</g>
<!-- kernel/api&#45;&gt;kernel/io -->
<g id="edge3" class="edge">
<title>kernel/api:e&#45;&gt;kernel/io</title>
<path fill="none" stroke="#700791" stroke-width="2" stroke-opacity="0.698039" d="M108,-380C140.13,-380 175.87,-380 205.49,-380"/>
<polygon fill="#700791" fill-opacity="0.698039" stroke="#700791" stroke-width="2" stroke-opacity="0.698039" points="205.7,-383.5 215.7,-380 205.7,-376.5 205.7,-383.5"/>
</g>
<!-- kernel/cron -->
<g id="node2" class="node">
<title>kernel/cron</title>
<g id="a_node2"><a xlink:href="https://pkg.go.dev/github.com/aileron-gateway/aileron-gateway/kernel/cron" xlink:title="kernel/cron\l480 / 11.4KB\l" target="_graphviz">
<polygon fill="none" stroke="#1a9107" stroke-width="2" stroke-opacity="0.698039" points="324,-290 216,-290 216,-254 324,-254 324,-290"/>
<text text-anchor="start" x="224" y="-275" font-family="Times,serif" font-size="10.00">kernel/cron</text>
<text text-anchor="start" x="224" y="-264" font-family="Times,serif" font-size="10.00">480 / 11.4KB</text>
</a>
</g>
</g>
<!-- kernel/cron&#45;&gt;kernel/er -->
<g id="edge4" class="edge">
<title>kernel/cron:e&#45;&gt;kernel/er</title>
<path fill="none" stroke="#07918f" stroke-width="2" stroke-opacity="0.698039" d="M324,-272C357.19,-272 393.97,-264.89 421.92,-257.97"/>
<polygon fill="#07918f" fill-opacity="0.698039" stroke="#07918f" stroke-width="2" stroke-opacity="0.698039" points="422.98,-261.31 431.79,-255.44 421.24,-254.53 422.98,-261.31"/>
</g>
<!-- kernel/encoder&#45;&gt;kernel/er -->
<g id="edge5" class="edge">
<title>kernel/encoder:e&#45;&gt;kernel/er</title>
<path fill="none" stroke="#07918f" stroke-width="2" stroke-opacity="0.698039" d="M324,-326C369.97,-326 414.71,-293.92 441.56,-270.14"/>
<polygon fill="#07918f" fill-opacity="0.698039" stroke="#07918f" stroke-width="2" stroke-opacity="0.698039" points="443.95,-272.7 448.98,-263.38 439.23,-267.53 443.95,-272.7"/>
</g>
<!-- kernel/encrypt -->
<g id="node4" class="node">
<title>kernel/encrypt</title>
<g id="a_node4"><a xlink:href="https://pkg.go.dev/github.com/aileron-gateway/aileron-gateway/kernel/encrypt" xlink:title="kernel/encrypt\l1349 / 42.3KB\l" target="_graphviz">
<polygon fill="none" stroke="#580791" stroke-width="2" stroke-opacity="0.698039" points="324,-236 216,-236 216,-200 324,-200 324,-236"/>
<text text-anchor="start" x="224" y="-221" font-family="Times,serif" font-size="10.00">kernel/encrypt</text>
<text text-anchor="start" x="224" y="-210" font-family="Times,serif" font-size="10.00">1349 / 42.3KB</text>
</a>
</g>
</g>
<!-- kernel/encrypt&#45;&gt;kernel/er -->
<g id="edge6" class="edge">
<title>kernel/encrypt:e&#45;&gt;kernel/er</title>
<path fill="none" stroke="#07918f" stroke-width="2" stroke-opacity="0.698039" d="M324,-218C357.19,-218 393.97,-225.11 421.92,-232.03"/>
<polygon fill="#07918f" fill-opacity="0.698039" stroke="#07918f" stroke-width="2" stroke-opacity="0.698039" points="421.24,-235.47 431.79,-234.56 422.98,-228.69 421.24,-235.47"/>
</g>
<!-- kernel/errorutil -->
<g id="node6" class="node">
<title>kernel/errorutil</title>
<g id="a_node6"><a xlink:href="https://pkg.go.dev/github.com/aileron-gateway/aileron-gateway/kernel/errorutil" xlink:title="kernel/errorutil\l343 / 8.9KB\l" target="_graphviz">
<polygon fill="none" stroke="#119107" stroke-width="2" stroke-opacity="0.698039" points="108,-452 0,-452 0,-416 108,-416 108,-452"/>
<text text-anchor="start" x="8" y="-437" font-family="Times,serif" font-size="10.00">kernel/errorutil</text>
<text text-anchor="start" x="8" y="-426" font-family="Times,serif" font-size="10.00">343 / 8.9KB</text>
</a>
</g>
</g>
<!-- kernel/hash -->
<g id="node7" class="node">
<title>kernel/hash</title>
<g id="a_node7"><a xlink:href="https://pkg.go.dev/github.com/aileron-gateway/aileron-gateway/kernel/hash" xlink:title="kernel/hash\l443 / 14.7KB\l" target="_graphviz">
<polygon fill="none" stroke="#076291" stroke-width="2" stroke-opacity="0.698039" points="324,-144 216,-144 216,-108 324,-108 324,-144"/>
<text text-anchor="start" x="224" y="-129" font-family="Times,serif" font-size="10.00">kernel/hash</text>
<text text-anchor="start" x="224" y="-118" font-family="Times,serif" font-size="10.00">443 / 14.7KB</text>
</a>
</g>
</g>
<!-- kernel/io&#45;&gt;kernel/er -->
<g id="edge7" class="edge">
<title>kernel/io:e&#45;&gt;kernel/er</title>
<path fill="none" stroke="#07918f" stroke-width="2" stroke-opacity="0.698039" d="M324,-380C386.27,-380 432.39,-311.48 453.77,-272.07"/>
<polygon fill="#07918f" fill-opacity="0.698039" stroke="#07918f" stroke-width="2" stroke-opacity="0.698039" points="456.88,-273.69 458.43,-263.21 450.68,-270.43 456.88,-273.69"/>
</g>
<!-- kernel/kvs -->
<g id="node9" class="node">
<title>kernel/kvs</title>
<g id="a_node9"><a xlink:href="https://pkg.go.dev/github.com/aileron-gateway/aileron-gateway/kernel/kvs" xlink:title="kernel/kvs\l116 / 3.4KB\l" target="_graphviz">
<polygon fill="none" stroke="#369107" stroke-width="2" stroke-opacity="0.698039" points="108,-506 0,-506 0,-470 108,-470 108,-506"/>
<text text-anchor="start" x="8" y="-491" font-family="Times,serif" font-size="10.00">kernel/kvs</text>
<text text-anchor="start" x="8" y="-480" font-family="Times,serif" font-size="10.00">116 / 3.4KB</text>
</a>
</g>
</g>
<!-- kernel/log -->
<g id="node10" class="node">
<title>kernel/log</title>
<g id="a_node10"><a xlink:href="https://pkg.go.dev/github.com/aileron-gateway/aileron-gateway/kernel/log" xlink:title="kernel/log\l571 / 15.4KB\l" target="_graphviz">
<polygon fill="none" stroke="#916c07" stroke-width="2" stroke-opacity="0.698039" points="108,-560 0,-560 0,-524 108,-524 108,-560"/>
<text text-anchor="start" x="8" y="-545" font-family="Times,serif" font-size="10.00">kernel/log</text>
<text text-anchor="start" x="8" y="-534" font-family="Times,serif" font-size="10.00">571 / 15.4KB</text>
</a>
</g>
</g>
<!-- kernel/mac -->
<g id="node11" class="node">
<title>kernel/mac</title>
<g id="a_node11"><a xlink:href="https://pkg.go.dev/github.com/aileron-gateway/aileron-gateway/kernel/mac" xlink:title="kernel/mac\l422 / 15.5KB\l" target="_graphviz">
<polygon fill="none" stroke="#074691" stroke-width="2" stroke-opacity="0.698039" points="108,-614 0,-614 0,-578 108,-578 108,-614"/>
<text text-anchor="start" x="8" y="-599" font-family="Times,serif" font-size="10.00">kernel/mac</text>
<text text-anchor="start" x="8" y="-588" font-family="Times,serif" font-size="10.00">422 / 15.5KB</text>
</a>
</g>
</g>
<!-- kernel/network -->
<g id="node12" class="node">
<title>kernel/network</title>
<g id="a_node12"><a xlink:href="https://pkg.go.dev/github.com/aileron-gateway/aileron-gateway/kernel/network" xlink:title="kernel/network\l3483 / 113.3KB\l" target="_graphviz">
<polygon fill="none" stroke="#073c91" stroke-width="2" stroke-opacity="0.698039" points="324,-90 216,-90 216,-54 324,-54 324,-90"/>
<text text-anchor="start" x="224" y="-75" font-family="Times,serif" font-size="10.00">kernel/network</text>
<text text-anchor="start" x="224" y="-64" font-family="Times,serif" font-size="10.00">3483 / 113.3KB</text>
</a>
</g>
</g>
<!-- kernel/network&#45;&gt;kernel/er -->
<g id="edge8" class="edge">
<title>kernel/network:e&#45;&gt;kernel/er</title>
<path fill="none" stroke="#07918f" stroke-width="2" stroke-opacity="0.698039" d="M324,-72C398.4,-72 441.36,-168.22 458.4,-217.14"/>
<polygon fill="#07918f" fill-opacity="0.698039" stroke="#07918f" stroke-width="2" stroke-opacity="0.698039" points="455.14,-218.45 461.64,-226.81 461.78,-216.22 455.14,-218.45"/>
</g>
<!-- kernel/testutil -->
<g id="node13" class="node">
<title>kernel/testutil</title>
<g id="a_node13"><a xlink:href="https://pkg.go.dev/github.com/aileron-gateway/aileron-gateway/kernel/testutil" xlink:title="kernel/testutil\l605 / 15.7KB\l" target="_graphviz">
<polygon fill="none" stroke="#839107" stroke-width="2" stroke-opacity="0.698039" points="108,-668 0,-668 0,-632 108,-632 108,-668"/>
<text text-anchor="start" x="8" y="-653" font-family="Times,serif" font-size="10.00">kernel/testutil</text>
<text text-anchor="start" x="8" y="-642" font-family="Times,serif" font-size="10.00">605 / 15.7KB</text>
</a>
</g>
</g>
<!-- kernel/txtutil -->
<g id="node14" class="node">
<title>kernel/txtutil</title>
<g id="a_node14"><a xlink:href="https://pkg.go.dev/github.com/aileron-gateway/aileron-gateway/kernel/txtutil" xlink:title="kernel/txtutil\l1304 / 36.2KB\l" target="_graphviz">
<polygon fill="none" stroke="#5e9107" stroke-width="2" stroke-opacity="0.698039" points="108,-213 0,-213 0,-177 108,-177 108,-213"/>
<text text-anchor="start" x="8" y="-198" font-family="Times,serif" font-size="10.00">kernel/txtutil</text>
<text text-anchor="start" x="8" y="-187" font-family="Times,serif" font-size="10.00">1304 / 36.2KB</text>
</a>
</g>
</g>
<!-- kernel/txtutil&#45;&gt;kernel/encoder -->
<g id="edge9" class="edge">
<title>kernel/txtutil:e&#45;&gt;kernel/encoder</title>
<path fill="none" stroke="#3a0791" stroke-width="2" stroke-opacity="0.698039" d="M108,-195C174.64,-195 161.72,-260.34 216,-299 217.81,-300.29 219.69,-301.55 221.62,-302.79"/>
<polygon fill="#3a0791" fill-opacity="0.698039" stroke="#3a0791" stroke-width="2" stroke-opacity="0.698039" points="219.91,-305.84 230.28,-307.98 223.51,-299.84 219.91,-305.84"/>
</g>
<!-- kernel/txtutil&#45;&gt;kernel/encrypt -->
<g id="edge10" class="edge">
<title>kernel/txtutil:e&#45;&gt;kernel/encrypt</title>
<path fill="none" stroke="#580791" stroke-width="2" stroke-opacity="0.698039" d="M108,-195C140.46,-195 176.22,-199.64 205.79,-204.75"/>
<polygon fill="#580791" fill-opacity="0.698039" stroke="#580791" stroke-width="2" stroke-opacity="0.698039" points="205.51,-208.25 215.97,-206.57 206.74,-201.36 205.51,-208.25"/>
</g>
<!-- kernel/txtutil&#45;&gt;kernel/er -->
<g id="edge11" class="edge">
<title>kernel/txtutil:e&#45;&gt;kernel/er</title>
<path fill="none" stroke="#07918f" stroke-width="2" stroke-opacity="0.698039" d="M108,-195C204.02,-195 229.54,-173.76 324,-191 358.21,-197.24 394.87,-211.25 422.51,-223.43"/>
<polygon fill="#07918f" fill-opacity="0.698039" stroke="#07918f" stroke-width="2" stroke-opacity="0.698039" points="421.33,-226.74 431.88,-227.64 424.2,-220.35 421.33,-226.74"/>
</g>
<!-- kernel/txtutil&#45;&gt;kernel/hash -->
<g id="edge12" class="edge">
<title>kernel/txtutil:e&#45;&gt;kernel/hash</title>
<path fill="none" stroke="#076291" stroke-width="2" stroke-opacity="0.698039" d="M108,-195C131.93,-195 187.29,-168.92 226.39,-148.83"/>
<polygon fill="#076291" fill-opacity="0.698039" stroke="#076291" stroke-width="2" stroke-opacity="0.698039" points="228.18,-151.84 235.45,-144.13 224.96,-145.62 228.18,-151.84"/>
</g>
<!-- kernel/uid -->
<g id="node15" class="node">
<title>kernel/uid</title>
<g id="a_node15"><a xlink:href="https://pkg.go.dev/github.com/aileron-gateway/aileron-gateway/kernel/uid" xlink:title="kernel/uid\l137 / 4.7KB\l" target="_graphviz">
<polygon fill="none" stroke="#911c07" stroke-width="2" stroke-opacity="0.698039" points="324,-36 216,-36 216,0 324,0 324,-36"/>
<text text-anchor="start" x="224" y="-21" font-family="Times,serif" font-size="10.00">kernel/uid</text>
<text text-anchor="start" x="224" y="-10" font-family="Times,serif" font-size="10.00">137 / 4.7KB</text>
</a>
</g>
</g>
<!-- kernel/uid&#45;&gt;kernel/er -->
<g id="edge13" class="edge">
<title>kernel/uid:e&#45;&gt;kernel/er</title>
<path fill="none" stroke="#07918f" stroke-width="2" stroke-opacity="0.698039" d="M324,-18C416.93,-18 451.87,-155.89 462.76,-216.73"/>
<polygon fill="#07918f" fill-opacity="0.698039" stroke="#07918f" stroke-width="2" stroke-opacity="0.698039" points="459.35,-217.53 464.47,-226.81 466.25,-216.36 459.35,-217.53"/>
</g>
</g>
</svg>
